<svg xmlns:xlink="http://www.w3.org/1999/xlink" xmlns="http://www.w3.org/2000/svg" transform="rotate(0) scale(1, 1)" viewBox="13.89311015653324 49.61003968800001 571.6006132956153 434.58360000000005" version="1.1" style="max-height: 500px" width="571.6006132956153" height="434.58360000000005">
<rect x="0" y="0" width="120%" height="120%" fill="#ffffff"/>
<path d="M273.92 135.52H398.72V198.56H273.92Z" transform="matrix(.75,0,0,.75,0,0)" fill="#000000"/>
<path fill="#535353" d="M647.84 135.52H772.64V198.56H647.84Z" transform="matrix(.75,0,0,.75,0,0)"/>
<path fill="#0000ac" d="M273.92 198.4H398.72V261.44H273.92Z" transform="matrix(.75,0,0,.75,0,0)"/>
<path fill="#5353ff" d="M647.84 198.4H772.64V261.44H647.84Z" transform="matrix(.75,0,0,.75,0,0)"/>
<path fill="#00ac00" d="M273.92 261.28H398.72V324.32H273.92Z" transform="matrix(.75,0,0,.75,0,0)"/>
<path fill="#53ff53" d="M647.84 261.28H772.64V324.32H647.84Z" transform="matrix(.75,0,0,.75,0,0)"/>
<path fill="#00acac" d="M273.92 324.16H398.72V387.2H273.92Z" transform="matrix(.75,0,0,.75,0,0)"/>
<path fill="#53ffff" d="M647.84 324.16H772.64V387.2H647.84Z" transform="matrix(.75,0,0,.75,0,0)"/>
<path fill="#ac0000" d="M273.92 387.04H398.72V450.08H273.92Z" transform="matrix(.75,0,0,.75,0,0)"/>
<path fill="#ff5353" d="M647.84 387.04H772.64V450.08H647.84Z" transform="matrix(.75,0,0,.75,0,0)"/>
<path fill="#ac00ac" d="M273.92 449.92H398.72V512.96H273.92Z" transform="matrix(.75,0,0,.75,0,0)"/>
<path fill="#ff53ff" d="M647.84 449.92H772.64V512.96H647.84Z" transform="matrix(.75,0,0,.75,0,0)"/>
<path fill="#acac00" d="M273.92 512.8H398.72V575.84H273.92Z" transform="matrix(.75,0,0,.75,0,0)"/>
<path fill="#ffff53" d="M647.84 512.8H772.64V575.84H647.84Z" transform="matrix(.75,0,0,.75,0,0)"/>
<path fill="#acacac" d="M273.92 575.68H398.72V638.72H273.92Z" transform="matrix(.75,0,0,.75,0,0)"/>
<path fill="#ffffff" d="M647.84 575.68H772.64V638.72H647.84Z" transform="matrix(.75,0,0,.75,0,0)"/>
<text font-family="F1" font-size="14.7194" transform="matrix(.75 0 0 .75 0 0)" xml:space="preserve" fill="#000000"><tspan x="54.56 62.408433 70.170619 73.54861 81.497089 86.501689 89.82936 97.77784 105.54002 113.27346 177.89163 186.94751 194.45439 200.21134 206.43546 211.56711 214.80538 222.53882 227.54341 230.9214 238.6836 305.95127 313.79969 321.56187 324.93986 332.70204 337.83369 343.72148 352.89237 360.54646 428.4029 436.35136 444.11354 447.49153 455.2537 460.38536 463.71305 471.6615 479.42369 487.1571 551.77529 560.8312 568.3381 574.09506 580.31918 585.45089 588.82888 596.4829 601.4875 604.72579 612.67428 679.7947 687.74319 695.5054 698.88339 706.64559 711.7773 717.4624 726.7356 734.38967" y="109.12" fill="#000000">Color CodeDescriptionColor/HueColor CodeDescriptionColor/Hue</tspan></text>
<text font-family="F1" font-size="14.7194" transform="matrix(.75 0 0 .75 0 0)" xml:space="preserve" fill="#000000"><tspan x="83.84 196.44342 204.5391 207.77736 214.82802 221.15737 457.69813 556.1709 565.2268 572.27749 577.4092 584.1801 587.5078 596.79367 601.92538 609.24917" y="172" fill="#000000">0Black8Dark Grey</tspan></text>
<text font-family="F1" font-size="14.7194" transform="matrix(.75 0 0 .75 0 0)" xml:space="preserve" fill="#000000"><tspan x="83.84 183.34314 192.39902 199.44968 204.58133 211.35225 214.67993 222.7756 226.01387 233.74732 457.7766 553.30557 561.3121 566.4438 569.8218 576.59268 584.2467 589.2513 592.579 600.6746 604.0526 611.70669" y="234.88" fill="#000000">1Dark Blue9Bright Blue</tspan></text>
<text font-family="F1" font-size="14.7194" transform="matrix(.75 0 0 .75 0 0)" xml:space="preserve" fill="#000000"><tspan x="83.84 178.04416 187.10004 194.31255 199.31714 206.08806 209.41574 218.70162 223.83327 231.15703 238.48079 453.97285 461.43318 547.9833 555.9898 561.1215 564.4995 571.428 579.08206 584.01248 587.34017 596.626 601.7577 609.0815 616.4053" y="297.76" fill="#000000">2Dark Green10Bright Green</tspan></text>
<text font-family="F1" font-size="14.7194" transform="matrix(.75 0 0 .75 0 0)" xml:space="preserve" fill="#000000"><tspan x="83.84 181.8712 190.92708 198.13959 203.14418 209.9151 213.24279 221.19127 227.8538 234.90447 453.92918 461.3895 551.7666 559.86227 564.99398 568.37197 575.1428 582.8762 587.8808 591.2085 599.05697 605.8279 612.74606" y="360.64" fill="#000000">3Dark Cyan11Bright Cyan</tspan></text>
<text font-family="F1" font-size="14.7194" transform="matrix(.75 0 0 .75 0 0)" xml:space="preserve" fill="#000000"><tspan x="83.84 184.96228 194.01816 201.06882 206.20047 212.97139 216.29907 224.29126 231.61502 453.878 461.33833 554.8065 562.90219 568.0339 571.41189 578.18276 585.91616 590.9207 594.2484 602.2406 609.5644" y="423.52" fill="#000000">4Dark Red12Bright Red</tspan></text>
<text font-family="F1" font-size="14.7194" transform="matrix(.75 0 0 .75 0 0)" xml:space="preserve" fill="#000000"><tspan x="83.84 169.8013 178.85718 185.90784 191.03949 197.81041 201.04868 213.63349 220.846 227.61692 234.94068 242.67412 247.67871 453.89753 461.35786 539.6651 547.67166 552.80337 556.18136 563.1098 570.76388 575.6943 579.022 591.60678 598.6574 605.5859 612.90969 620.5637 625.5683" y="486.4" fill="#000000">5Dark Magenta13Bright Magenta</tspan></text>
<text font-family="F1" font-size="14.7194" transform="matrix(.75 0 0 .75 0 0)" xml:space="preserve" fill="#000000"><tspan x="83.84 176.57222 185.6281 192.8406 197.97226 204.66355 207.99123 215.16407 222.48783 225.86582 229.2438 237.006 453.96998 461.4303 546.5084 554.60409 559.6087 562.9867 569.91519 577.5692 582.5738 585.9015 593.0743 600.3981 603.77609 607.15408 615.10256" y="549.28" fill="#000000">6Dark Yellow14Bright Yellow</tspan></text>
<text font-family="F1" font-size="14.7194" transform="matrix(.75 0 0 .75 0 0)" xml:space="preserve" fill="#000000"><tspan x="83.84 197.91535 207.20122 212.33287 219.65663 453.9895 461.44984 567.8711 580.9662 588.62026 591.9982 597.0028" y="612.16" fill="#000000">7Grey15White</tspan></text>
<path fill-rule="evenodd" fill="#000000" d="M24 72H25.28V639.2H24ZM148.64 73.28H149.92V639.2H148.64ZM273.28 73.28H274.56V639.2H273.28ZM397.92 73.28H399.2V639.2H397.92ZM522.56 73.28H523.84V639.2H522.56ZM647.2 73.28H648.48V639.2H647.2ZM771.84 73.28H773.12V639.2H771.84Z" transform="matrix(.75,0,0,.75,0,0)"/>
<path fill-rule="evenodd" fill="#000000" d="M25.28 72H773.12V73.28H25.28ZM25.28 134.88H773.12V136.16H25.28ZM25.28 197.76H773.12V199.04H25.28ZM25.28 260.64H773.12V261.92H25.28ZM25.28 323.52H773.12V324.8H25.28ZM25.28 386.4H773.12V387.68H25.28ZM25.28 449.28H773.12V450.56H25.28ZM25.28 512.16H773.12V513.44H25.28ZM25.28 575.04H773.12V576.32H25.28ZM25.28 637.92H773.12V639.2H25.28Z" transform="matrix(.75,0,0,.75,0,0)"/>
</svg>