<svg viewBox="69.49251081355932 46.024907698662005 474.23796610169495 513.5712427" version="1.1" xmlns:xlink="http://www.w3.org/1999/xlink" xmlns="http://www.w3.org/2000/svg" style="max-height: 500px" width="474.23796610169495" height="513.5712427">
<defs>
<clipPath id="clip_1">
<path clip-rule="evenodd" d="M460.48 208.16 460.16 208.32 459.84 208.64 459.52 208.8 459.2 209.12 458.88 209.28 458.56 209.6 458.24 209.76 457.92 210.08 457.6 210.24 457.28 210.56 456.96 210.72 456.64 211.04 456.32 211.2 456 211.52 455.68 211.68 455.36 212 455.04 212.16 454.72 212.48 454.4 212.64 454.08 212.96 453.76 213.12 453.44 213.44 453.12 213.6 452.8 213.92 452.48 214.08 452 214.56 451.68 214.72 451.36 215.04 451.04 215.2 450.72 215.52 450.4 215.68 450.08 216 449.76 216.16 449.44 216.48 449.12 216.64 448.8 216.96 448.48 217.12 448.16 217.44 447.84 217.6 447.52 217.92 447.2 218.08 446.88 218.4 446.56 218.56 446.24 218.88 445.92 219.04 445.6 219.36 445.28 219.52 444.96 219.84 444.64 220 444.32 220.32 444 220.48 443.68 220.8 443.36 220.96 443.04 221.28 442.72 221.44 442.4 221.76 442.08 221.92 441.76 222.24 441.44 222.4 441.12 222.72 440.8 222.88 440.32 223.36 440 223.52 439.68 223.84 439.36 224 439.04 224.32 438.72 224.48 438.4 224.8 438.08 224.96 437.76 225.28 437.44 225.44 437.12 225.76 436.8 225.92 436.48 226.24 436.16 226.4 435.84 226.72 435.52 226.88 435.2 227.2 434.88 227.36 434.56 227.68 434.24 227.84 433.92 228.16 433.6 228.32 433.28 228.64 432.96 228.8 432.64 229.12 432.32 229.28 432 229.6 431.68 229.76 431.36 230.08 431.04 230.24 430.72 230.56 430.4 230.72 430.08 231.04 429.76 231.2 429.44 231.52 429.12 231.68 428.64 232.16 428.32 232.32 428 232.64 427.68 232.8 427.36 233.12 427.04 233.28 426.72 233.6 426.4 233.76 426.08 234.08 425.76 234.24 425.44 234.56 425.12 234.72 424.8 235.04 424.48 235.2 424.16 235.52 423.84 235.68 423.52 236 423.2 236.16 422.88 236.48 422.56 236.64 422.24 236.96 421.92 237.12 421.6 237.44 421.28 237.6 420.96 237.92 420.64 238.08 420.32 238.4 420 238.56 419.68 238.88 419.36 239.04 419.04 239.36 418.72 239.52 418.4 239.84 418.08 240 417.6 240.48 417.28 240.64 416.96 240.96 416.64 241.12 416.32 241.44 416 241.6 415.68 241.92 415.36 242.08 415.04 242.4 414.72 242.56 414.4 242.88 414.08 243.04 413.76 243.36 413.44 243.52 413.12 243.84 412.8 244 412.48 244.32 412.16 244.48 411.84 244.8 411.52 244.96 411.2 245.28 410.88 245.44 410.56 245.76 410.24 245.92 409.92 246.24 409.6 246.4 409.28 246.72 408.96 246.88 408.64 247.2 408.32 247.36 408 247.68 407.68 247.84 407.36 248.16 407.04 248.32 406.72 248.64 406.4 248.8 405.92 249.28 405.6 249.44 405.28 249.76 404.96 249.92 404.64 250.24 404.32 250.4 404 250.72 403.68 250.88 403.36 251.2 403.04 251.36 402.72 251.68 402.4 251.84 402.08 252.16 401.76 252.32 401.44 252.64 401.12 252.8 400.8 253.12 400.48 253.28 400.16 253.6 399.84 253.76 399.52 254.08 399.2 254.24 398.88 254.56 398.56 254.72 398.24 255.04 397.92 255.2 397.6 255.52 397.28 255.68 396.96 256 396.64 256.16 396.32 256.48 396 256.64 395.68 256.96 395.36 257.12 394.88 257.6 394.56 257.76 394.24 258.08 393.92 258.24 393.6 258.56 393.28 258.72 392.96 259.04 392.64 259.2 392.32 259.52 392 259.68 391.68 260 391.36 260.16 391.04 260.48 390.72 260.64 390.4 260.96 390.08 261.12 389.76 261.44 389.44 261.6 389.12 261.92 388.8 262.08 388.48 262.4 388.16 262.56 387.84 262.88 387.52 263.04 387.2 263.36 386.88 263.52 386.56 263.84 386.24 264 385.92 264.32 385.6 264.48 385.28 264.8 384.96 264.96 384.64 265.28 384.32 265.44 384 265.76 383.68 265.92 383.2 266.4 382.88 266.56 382.56 266.88 382.24 267.04 381.92 267.36 381.6 267.52 381.28 267.84 380.96 268 380.64 268.32 380.32 268.48 380 268.8 379.68 268.96 379.36 269.28 379.04 269.44 378.72 269.76 378.4 269.92 378.08 270.24 377.76 270.4 377.44 270.72 377.12 270.88 376.8 271.2 376.48 271.36 376.16 271.68 375.84 271.84 375.52 272.16 375.2 272.32 374.88 272.64 374.56 272.8 374.24 273.12 373.92 273.28 373.6 273.6 373.28 273.76 372.96 274.08 372.64 274.24 372.16 274.72 371.84 274.88 371.52 275.2 371.2 275.36 370.88 275.68 370.56 275.84 370.24 276.16 369.92 276.32 369.6 276.64 369.28 276.8 368.96 277.12 368.64 277.28 368.32 277.6 368 277.76 367.68 278.08 367.36 278.24 367.04 278.56 366.72 278.72 366.4 279.04 366.08 279.2 365.76 279.52 365.44 279.68 365.12 280 364.8 280.16 364.48 280.48 364.16 280.64 363.84 280.96 363.52 281.12 363.2 281.44 362.88 281.6 362.56 281.92 362.24 282.08 361.92 282.4 361.6 282.56 361.28 282.88 360.96 283.04 360.48 283.52 360.16 283.68 359.84 284 359.52 284.16 359.2 284.48 358.88 284.64 358.56 284.96 358.24 285.12 357.92 285.44 357.6 285.6 357.28 285.92 356.96 286.08 356.64 286.4 356.32 286.56 356 286.88 355.68 287.04 355.36 287.36 355.04 287.52 354.72 287.84 354.4 288 354.08 288.32 353.76 288.48 353.44 288.8 353.12 288.96 352.8 289.28 352.48 289.44 352.16 289.76 351.84 289.92 351.52 290.24 351.2 290.4 350.88 290.72 350.56 290.88 350.24 291.2 349.92 291.36 349.44 291.84 349.12 292 348.8 292.32 348.48 292.48 348.16 292.8 347.84 292.96 347.52 293.28 347.2 293.44 346.88 293.76 346.56 293.92 346.24 294.24 345.92 294.4 345.6 294.72 345.28 294.88 344.96 295.2 344.64 295.36 344.32 295.68 344 295.84 343.68 296.16 343.36 296.32 343.04 296.64 342.72 296.8 342.4 297.12 342.08 297.28 341.76 297.6 341.44 297.76 341.12 298.08 340.8 298.24 340.48 298.56 340.16 298.72 339.84 299.04 339.52 299.2 339.2 299.52 338.88 299.68 338.56 300 338.24 300.16 337.76 300.64 337.44 300.8 337.12 301.12 336.8 301.28 336.48 301.6 336.16 301.76 336 301.92V302.4H336.16L336.64 302.88V303.2H336.8L337.12 303.52V303.84H337.28L337.6 304.16V304.48H337.76L338.08 304.8V305.12H338.24L338.56 305.44V305.76H338.72L339.04 306.08V306.4H339.2L339.52 306.72V307.04H339.68L340 307.36V307.68H340.16L340.48 308V308.32H340.64L340.96 308.64V308.96H341.12L341.44 309.28V309.6H341.6L341.92 309.92V310.24H342.08L342.4 310.56V310.88H342.56L342.88 311.2V311.52H343.04L343.36 311.84V312.16H343.52L343.84 312.48V312.8H344L344.32 313.12V313.44H344.48L344.8 313.76V314.08H344.96L345.44 314.56V314.88H345.6L345.92 315.2V315.52H346.08L346.4 315.84V316.16H346.56L346.88 316.48V316.8H347.04L347.36 317.12V317.44H347.52L347.84 317.76V318.08H348L348.32 318.4V318.72H348.48L348.8 319.04V319.36H348.96L349.28 319.68V320H349.44L349.76 320.32V320.64H349.92L350.24 320.96V321.28H350.4L350.72 321.6V321.92H350.88L351.2 322.24V322.56H351.36L351.68 322.88V323.2H351.84L352.16 323.52V323.84H352.32L352.64 324.16V324.48H352.8L353.28 324.64V324.48L353.6 324.16 353.92 324 354.24 323.68 354.56 323.52 354.88 323.2 355.2 323.04 355.52 322.72 355.84 322.56 356.16 322.24 356.48 322.08 356.8 321.76 357.12 321.6 357.44 321.28 357.76 321.12 358.08 320.8 358.4 320.64 358.72 320.32 359.04 320.16 359.36 319.84 359.68 319.68 360.16 319.2 360.48 319.04 360.8 318.72 361.12 318.56 361.44 318.24 361.76 318.08 362.08 317.76 362.4 317.6 362.72 317.28 363.04 317.12 363.36 316.8 363.68 316.64 364 316.32 364.32 316.16 364.64 315.84 364.96 315.68 365.28 315.36 365.6 315.2 365.92 314.88 366.24 314.72 366.56 314.4 366.88 314.24 367.2 313.92 367.52 313.76 367.84 313.44 368.16 313.28 368.48 312.96 368.8 312.8 369.12 312.48 369.44 312.32 369.76 312 370.08 311.84 370.4 311.52 370.72 311.36 371.04 311.04 371.36 310.88 371.84 310.4 372.16 310.24 372.48 309.92 372.8 309.76 373.12 309.44 373.44 309.28 373.76 308.96 374.08 308.8 374.4 308.48 374.72 308.32 375.04 308 375.36 307.84 375.68 307.52 376 307.36 376.32 307.04 376.64 306.88 376.96 306.56 377.28 306.4 377.6 306.08 377.92 305.92 378.24 305.6 378.56 305.44 378.88 305.12 379.2 304.96 379.52 304.64 379.84 304.48 380.16 304.16 380.48 304 380.8 303.68 381.12 303.52 381.44 303.2 381.76 303.04 382.08 302.72 382.4 302.56 382.88 302.08 383.2 301.92 383.52 301.6 383.84 301.44 384.16 301.12 384.48 300.96 384.8 300.64 385.12 300.48 385.44 300.16 385.76 300 386.08 299.68 386.4 299.52 386.72 299.2 387.04 299.04 387.36 298.72 387.68 298.56 388 298.24 388.32 298.08 388.64 297.76 388.96 297.6 389.28 297.28 389.6 297.12 389.92 296.8 390.24 296.64 390.56 296.32 390.88 296.16 391.2 295.84 391.52 295.68 391.84 295.36 392.16 295.2 392.48 294.88 392.8 294.72 393.12 294.4 393.44 294.24 393.76 293.92 394.08 293.76 394.56 293.28 394.88 293.12 395.2 292.8 395.52 292.64 395.84 292.32 396.16 292.16 396.48 291.84 396.8 291.68 397.12 291.36 397.44 291.2 397.76 290.88 398.08 290.72 398.4 290.4 398.72 290.24 399.04 289.92 399.36 289.76 399.68 289.44 400 289.28 400.32 288.96 400.64 288.8 400.96 288.48 401.28 288.32 401.6 288 401.92 287.84 402.24 287.52 402.56 287.36 402.88 287.04 403.2 286.88 403.52 286.56 403.84 286.4 404.16 286.08 404.48 285.92 404.8 285.6 405.12 285.44 405.44 285.12 405.76 284.96 406.24 284.48 406.56 284.32 406.88 284 407.2 283.84 407.52 283.52 407.84 283.36 408.16 283.04 408.48 282.88 408.8 282.56 409.12 282.4 409.44 282.08 409.76 281.92 410.08 281.6 410.4 281.44 410.72 281.12 411.04 280.96 411.36 280.64 411.68 280.48 412 280.16 412.32 280 412.64 279.68 412.96 279.52 413.28 279.2 413.6 279.04 413.92 278.72 414.24 278.56 414.56 278.24 414.88 278.08 415.2 277.76 415.52 277.6 415.84 277.28 416.16 277.12 416.48 276.8 416.8 276.64 417.28 276.16 417.6 276 417.92 275.68 418.24 275.52 418.56 275.2 418.88 275.04 419.2 274.72 419.52 274.56 419.84 274.24 420.16 274.08 420.48 273.76 420.8 273.6 421.12 273.28 421.44 273.12 421.76 272.8 422.08 272.64 422.4 272.32 422.72 272.16 423.04 271.84 423.36 271.68 423.68 271.36 424 271.2 424.32 270.88 424.64 270.72 424.96 270.4 425.28 270.24 425.6 269.92 425.92 269.76 426.24 269.44 426.56 269.28 426.88 268.96 427.2 268.8 427.52 268.48 427.84 268.32 428.16 268 428.48 267.84 428.96 267.36 429.28 267.2 429.6 266.88 429.92 266.72 430.24 266.4 430.56 266.24 430.88 265.92 431.2 265.76 431.52 265.44 431.84 265.28 432.16 264.96 432.48 264.8 432.8 264.48 433.12 264.32 433.44 264 433.76 263.84 434.08 263.52 434.4 263.36 434.72 263.04 435.04 262.88 435.36 262.56 435.68 262.4 436 262.08 436.32 261.92 436.64 261.6 436.96 261.44 437.28 261.12 437.6 260.96 437.92 260.64 438.24 260.48 438.56 260.16 438.88 260 439.2 259.68 439.52 259.52 440 259.04 440.32 258.88 440.64 258.56 440.96 258.4 441.28 258.08 441.6 257.92 441.92 257.6 442.24 257.44 442.56 257.12 442.88 256.96 443.2 256.64 443.52 256.48 443.84 256.16 444.16 256 444.48 255.68 444.8 255.52 445.12 255.2 445.44 255.04 445.76 254.72 446.08 254.56 446.4 254.24 446.72 254.08 447.04 253.76 447.36 253.6 447.68 253.28 448 253.12 448.32 252.8 448.64 252.64 448.96 252.32 449.28 252.16 449.6 251.84 449.92 251.68 450.24 251.36 450.56 251.2 450.88 250.88 451.2 250.72 451.68 250.24 452 250.08 452.32 249.76 452.64 249.6 452.96 249.28 453.28 249.12 453.6 248.8 453.92 248.64 454.24 248.32 454.56 248.16 454.88 247.84 455.2 247.68 455.52 247.36 455.84 247.2 456.16 246.88 456.48 246.72 456.8 246.4 457.12 246.24 457.44 245.92 457.76 245.76 458.08 245.44 458.4 245.28 458.72 244.96 459.04 244.8 459.36 244.48 459.68 244.32 460 244 460.32 243.84 460.64 243.52 460.96 243.36 461.28 243.04 461.6 242.88 461.92 242.56 462.24 242.4 462.72 241.92 463.04 241.76 463.36 241.44 463.68 241.28 464 240.96 464.32 240.8 464.64 240.48 464.96 240.32 465.28 240 465.6 239.84 465.92 239.52 466.24 239.36 466.56 239.04 466.88 238.88 467.2 238.56 467.52 238.4 467.84 238.08 468.16 237.92 468.48 237.6 468.8 237.44 469.12 237.12 469.44 236.96 469.76 236.64 470.08 236.48 470.4 236.16 470.72 236 471.04 235.68 471.36 235.52 471.68 235.2 472 235.04 472.32 234.72 472.64 234.56 472.96 234.24 473.28 234.08 473.6 233.76 473.92 233.6 474.4 233.12 474.72 232.96 475.04 232.64 475.36 232.48 475.68 232.16 476 232 476.32 231.68 476.64 231.52 476.96 231.2 477.28 231.04 477.6 230.72 477.44 230.56H477.28V230.24L476.96 229.92H476.8V229.6L476.48 229.28H476.32V228.96L476 228.64H475.84V228.32L475.52 228H475.36V227.68L475.04 227.36H474.88V227.04L474.56 226.72H474.4V226.4L474.08 226.08H473.92V225.76L473.6 225.44H473.44V225.12L472.96 224.64H472.8V224.32L472.48 224H472.32V223.68L472 223.36H471.84V223.04L471.52 222.72H471.36V222.4L471.04 222.08H470.88V221.76L470.56 221.44H470.4V221.12L470.08 220.8H469.92V220.48L469.6 220.16H469.44V219.84L469.12 219.52H468.96V219.2L468.64 218.88H468.48V218.56L468.16 218.24H468V217.92L467.68 217.6H467.52V217.28L467.2 216.96H467.04V216.64L466.72 216.32H466.56V216L466.24 215.68H466.08V215.36L465.76 215.04H465.6V214.72L465.28 214.4H465.12V214.08L464.64 213.6H464.48V213.28L464.16 212.96H464V212.64L463.68 212.32H463.52V212L463.2 211.68H463.04V211.36L462.72 211.04H462.56V210.72L462.24 210.4H462.08V210.08L461.76 209.76H461.6V209.44L461.28 209.12H461.12V208.8L460.8 208.48H460.64V208.16Z" transform="matrix(.75,0,0,.75,0,0)"/>
</clipPath>
</defs>
<rect x="0" y="0" width="120%" height="125%" fill="#ffffff"/>
<path fill="#d9d9d9" d="M293.92 97.44H545.28V513.44H293.92Z" transform="matrix(.75,0,0,.75,0,0)"/>
<text font-family="Consolas" font-size="8.32032" transform="matrix(.75 0 0 .75 0 0)" xml:space="preserve"><tspan x="105.76 110.41938 115.07876 119.65331 124.31269 128.97208 133.63146 138.20601 142.86539 147.52477 152.18415" y="148">Scan Line 1</tspan></text>
<text font-family="Consolas" font-size="8.32032" transform="matrix(.75 0 0 .75 0 0)" xml:space="preserve"><tspan x="105.76 110.41938 115.07876 119.65331 124.31269 128.97208 133.63146 138.20601 142.86539 147.52477 152.18415" y="184.16">Scan Line 2</tspan></text>
<text font-family="Consolas" font-size="8.32032" transform="matrix(.75 0 0 .75 0 0)" xml:space="preserve"><tspan x="105.76 110.41938 115.07876 119.65331 124.31269 128.97208 133.63146 138.20601 142.86539 147.52477 152.18415" y="220.32">Scan Line 3</tspan></text>
<text font-family="Consolas" font-size="8.32032" transform="matrix(.75 0 0 .75 0 0)" xml:space="preserve"><tspan x="207.52 212.17938 216.83876 221.41332 226.0727" y="93.76">HSync</tspan></text>
<text font-family="Consolas" font-size="8.32032" transform="matrix(.75 0 0 .75 0 0)" xml:space="preserve"><tspan x="255.04 259.69938 264.35874 268.93327 273.59263 278.25199" y="82.88">H Back</tspan></text>
<text font-family="Consolas" font-size="8.32032" transform="matrix(.75 0 0 .75 0 0)" xml:space="preserve"><tspan x="257.44 262.0994 266.75877 271.33329 275.99266" y="93.76">Porch</tspan></text>
<text font-family="Consolas" font-size="8.32032" transform="matrix(.75 0 0 .75 0 0)" xml:space="preserve"><tspan x="554.08 558.73947 563.39889 567.97348 572.6329 577.2923 581.9517" y="82.88">H Front</tspan></text>
<text font-family="Consolas" font-size="8.32032" transform="matrix(.75 0 0 .75 0 0)" xml:space="preserve"><tspan x="558.72 563.3794 568.0388 572.6134 577.2728" y="93.76">Porch</tspan></text>
<text font-family="Consolas" font-size="8.32032" transform="matrix(.75 0 0 .75 0 0)" xml:space="preserve"><tspan x="101.12 105.77938 110.43876 115.01331 119.67269 124.33207 128.99146 133.56601 138.22539 142.88477 147.54415 152.1187 156.77808" y="654.24">Scan Line 492</tspan></text>
<text font-family="Consolas" font-size="8.32032" transform="matrix(.75 0 0 .75 0 0)" xml:space="preserve"><tspan x="101.12 105.77938 110.43876 115.01331 119.67269 124.33207 128.99146 133.56601 138.22539 142.88477 147.54415 152.1187 156.77808" y="690.4">Scan Line 493</tspan></text>
<text font-family="Consolas" font-size="8.32032" transform="matrix(.75 0 0 .75 0 0)" xml:space="preserve"><tspan x="101.12 105.77938 110.43876 115.01331 119.67269 124.33207 128.99146 133.56601 138.22539 142.88477 147.54415 152.1187 156.77808" y="726.56">Scan Line 525</tspan></text>
<text font-family="Consolas" font-size="8.32032" transform="matrix(.75 0 0 .75 0 0)" xml:space="preserve"><tspan x="105.76 110.41938 115.07876 119.65331 124.31269 128.97208 133.63146 138.20601 142.86539 147.52477 152.18415" y="256.48">Scan Line 4</tspan></text>
<text font-family="Consolas" font-size="8.32032" transform="matrix(.75 0 0 .75 0 0)" xml:space="preserve"><tspan x="105.76 110.41938 115.07876 119.65331 124.31269 128.97208 133.63146 138.20601 142.86539 147.52477 152.18415" y="292.64">Scan Line 5</tspan></text>
<text font-family="Consolas" font-size="8.32032" transform="matrix(.75 0 0 .75 0 0)" xml:space="preserve"><tspan x="105.76 110.41938 115.07876 119.65331 124.31269 128.97208 133.63146 138.20601 142.86539 147.52477 152.18415" y="401.12">Scan Line 8</tspan></text>
<text font-family="Consolas" font-size="8.32032" transform="matrix(.75 0 0 .75 0 0)" xml:space="preserve"><tspan x="105.76 110.41938 115.07876 119.65331 124.31269 128.97208 133.63146 138.20601 142.86539 147.52477 152.18415" y="328.8">Scan Line 6</tspan></text>
<text font-family="Consolas" font-size="8.32032" transform="matrix(.75 0 0 .75 0 0)" xml:space="preserve"><tspan x="101.12 105.77938 110.43876 115.01331 119.67269 124.33207 128.99146 133.56601 138.22539 142.88477 147.54415 152.1187 156.77808" y="473.44">Scan Line 479</tspan></text>
<text font-family="Consolas" font-size="8.32032" transform="matrix(.75 0 0 .75 0 0)" xml:space="preserve"><tspan x="101.12 105.77938 110.43876 115.01331 119.67269 124.33207 128.99146 133.56601 138.22539 142.88477 147.54415 152.1187 156.77808" y="509.6">Scan Line 480</tspan></text>
<text font-family="Consolas" font-size="8.32032" transform="matrix(.75 0 0 .75 0 0)" xml:space="preserve"><tspan x="101.12 105.77938 110.43876 115.01331 119.67269 124.33207 128.99146 133.56601 138.22539 142.88477 147.54415 152.1187 156.77808" y="618.08">Scan Line 491</tspan></text>
<text font-family="Consolas" font-size="8.32032" transform="matrix(.75 0 0 .75 0 0)" xml:space="preserve"><tspan x="101.12 105.77938 110.43876 115.01331 119.67269 124.33207 128.99146 133.56601 138.22539 142.88477 147.54415 152.1187 156.77808" y="545.76">Scan Line 481</tspan></text>
<text font-family="Consolas" font-size="8.32032" transform="matrix(.75 0 0 .75 0 0)" xml:space="preserve"><tspan x="101.12 105.77938 110.43876 115.01331 119.67269 124.33207 128.99146 133.56601 138.22539 142.88477 147.54415 152.1187 156.77808" y="581.92">Scan Line 482</tspan></text>
<text font-family="Consolas" font-size="8.32032" transform="matrix(.75 0 0 .75 0 0)" xml:space="preserve"><tspan x="105.76 110.41938 115.07876 119.65331 124.31269 128.97208 133.63146 138.20601 142.86539 147.52477 152.18415" y="364.96">Scan Line 7</tspan></text>
<text font-family="Consolas" font-size="8.32032" transform="matrix(.75 0 0 .75 0 0)" xml:space="preserve"><tspan x="105.76 110.41938 115.07876 119.65331 124.31269 128.97208 133.63146 138.20601 142.86539 147.52477 152.18415" y="437.28">Scan Line 9</tspan></text>
<text font-family="Consolas" font-size="327.68" transform="matrix(0 .019044 -.01904325 0 0 0)" xml:space="preserve"><tspan x="20800.6 20984.1 21167.6 21347.825 21531.325 21714.825 21898.325 22078.549 22262.049 22445.549 22629.049 22809.274 22992.774" y="-27770.9">V Front Porch</tspan></text>
<text font-family="Consolas" font-size="327.68" transform="matrix(0 .019044 -.01904325 0 0 0)" xml:space="preserve"><tspan x="11544 11727.501 11911.002 12091.227 12274.728 12458.229 12641.7299 12821.954 13005.455 13188.956 13372.457 13552.682 13736.183 25988.139 26168.364 26351.864 26535.364 26718.864 26899.088 27082.588 27266.088 27449.588 27629.813 27813.313 27996.813" y="-27770.9">V Active AreaV Back Porch</tspan></text>
<text font-family="Consolas" font-size="327.68" transform="matrix(0 .019044 -.01904325 0 0 0)" xml:space="preserve"><tspan x="24379.7 24563.2 24746.7 24926.924 25110.424" y="-27770.9">VSync</tspan></text>
<text font-family="Consolas" font-size="8.32032" transform="matrix(.75 0 0 .75 0 0)" xml:space="preserve"><tspan x="389.92 394.57939 399.23875 403.81327 408.47264 413.132 417.79136 422.36589 427.02525 431.6846 436.34397 440.9185 445.57786" y="93.76">H Active Area</tspan></text>
<path fill-rule="evenodd" d="M192.96 97.44H193.92V115.68H192.96ZM243.2 97.44H244.16V115.68H243.2ZM244.16 133.12H595.52V134.08H244.16ZM192.96 133.6H193.92V152.16H192.96Z" transform="matrix(.75,0,0,.75,0,0)"/>
<path fill-rule="evenodd" d="M243.2 133.12H244.16V152.16H243.2ZM192.96 169.76H193.92V188.32H192.96ZM243.2 169.28H244.16V188.32H243.2ZM192.96 205.92H193.92V224.48H192.96ZM243.2 205.44H244.16V224.48H243.2ZM192.96 242.08H193.92V260.64H192.96ZM243.2 241.6H244.16V260.64H243.2ZM192.96 278.24H193.92V296.8H192.96ZM243.2 277.76H244.16V296.8H243.2ZM192.96 314.4H193.92V332.96H192.96ZM243.2 313.92H244.16V332.96H243.2ZM192.96 350.56H193.92V369.12H192.96ZM243.2 350.08H244.16V369.12H243.2ZM192.96 386.72H193.92V405.28H192.96ZM243.2 386.24H244.16V405.28H243.2ZM192.96 422.88H193.92V441.44H192.96ZM243.2 422.4H244.16V441.44H243.2ZM192.96 459.04H193.92V477.6H192.96ZM243.2 458.56H244.16V477.6H243.2ZM193.92 512.8H244.16V513.76H193.92Z" transform="matrix(.75,0,0,.75,0,0)"/>
<path fill-rule="evenodd" d="M192.96 495.2H193.92V513.76H192.96ZM243.2 494.72H244.16V513.76H243.2ZM192.96 531.36H193.92V549.92H192.96ZM243.2 530.88H244.16V549.92H243.2ZM192.96 567.52H193.92V586.08H192.96ZM243.2 567.04H244.16V586.08H243.2ZM244.16 603.2H595.52V604.16H244.16ZM620.96 603.2H646.08V604.16H620.96ZM192.96 603.68H193.92V622.24H192.96Z" transform="matrix(.75,0,0,.75,0,0)"/>
<path fill-rule="evenodd" d="M243.2 603.2H244.16V622.24H243.2ZM193.92 657.44H244.16V658.4H193.92ZM645.12 97.44H646.08V604.16H645.12ZM620.96 657.44H646.08V658.4H620.96Z" transform="matrix(.75,0,0,.75,0,0)"/>
<path fill-rule="evenodd" d="M192.96 639.84H193.92V658.4H192.96ZM243.2 639.36H244.16V658.4H243.2ZM192.96 676H193.92V694.56H192.96ZM243.2 675.52H244.16V694.56H243.2ZM244.16 711.68H595.52V712.64H244.16ZM192.96 712.16H193.92V730.72H192.96Z" transform="matrix(.75,0,0,.75,0,0)"/>
<path fill-rule="evenodd" d="M243.2 711.68H244.16V730.72H243.2ZM293.44 97.44H294.4V115.68H293.44ZM544.64 97.44H545.6V115.68H544.64ZM594.88 97.44H595.84V115.68H594.88ZM645.12 658.4H646.08V730.4H645.12ZM620 603.2H620.96V658.4H620ZM670.72 133.12H696V134.08H670.72ZM193.92 151.2H244.16V152.16H193.92ZM244.16 169.28H595.52V170.24H244.16ZM193.92 187.36H244.16V188.32H193.92ZM244.16 205.44H595.52V206.4H244.16ZM193.92 223.52H244.16V224.48H193.92ZM244.16 241.6H595.52V242.56H244.16ZM193.92 259.68H244.16V260.64H193.92ZM244.16 277.76H595.52V278.72H244.16ZM193.92 295.84H244.16V296.8H193.92ZM244.16 313.92H595.52V314.88H244.16ZM193.92 332H244.16V332.96H193.92ZM244.16 350.08H595.52V351.04H244.16ZM193.92 368.16H244.16V369.12H193.92ZM244.16 386.24H595.52V387.2H244.16ZM193.92 404.32H244.16V405.28H193.92ZM244.16 422.4H595.52V423.36H244.16ZM193.92 440.48H244.16V441.44H193.92ZM244.16 458.56H595.52V459.52H244.16ZM193.92 476.64H244.16V477.6H193.92ZM244.16 494.72H595.52V495.68H244.16ZM670.72 512.8H696V513.76H670.72ZM244.16 530.88H595.52V531.84H244.16ZM193.92 548.96H244.16V549.92H193.92ZM244.16 567.04H595.52V568H244.16ZM193.92 585.12H244.16V586.08H193.92ZM670.72 603.2H696V604.16H670.72ZM193.92 621.28H244.16V622.24H193.92ZM244.16 639.36H595.52V640.32H244.16ZM670.72 657.44H696V658.4H670.72ZM244.16 675.52H595.52V676.48H244.16ZM193.92 693.6H244.16V694.56H193.92ZM670.72 711.68H696V712.64H670.72Z" transform="matrix(.75,0,0,.75,0,0)"/>
<path d="M193.92 729.76H244.16V730.72H193.92Z" transform="matrix(.75,0,0,.75,0,0)"/>
<path d="M0 0H49.12V.48H0V0ZM6.08 4.16-.64 .32 6.08-3.52H6.4V-3.2L.16 .48V0L6.4 3.68V4L6.08 4.16ZM43.04-3.52 49.6 .32 43.04 4.16 42.72 4V3.68L48.96 0V.48L42.72-3.2V-3.52H43.04Z" transform="matrix(.75,0,0,.75,145.08,78.12)"/>
<path d="M0 0H49.28V.48H0V0ZM6.08 4.16-.48 .32 6.08-3.52H6.4V-3.2L.16 .48V0L6.4 3.68V4L6.08 4.16ZM43.04-3.52 49.76 .32 43.04 4.16 42.72 4 42.88 3.68 49.12 0V.48L42.88-3.2 42.72-3.52H43.04Z" transform="matrix(.75,0,0,.75,183,78.12)"/>
<path d="M0 0H49.12V.48H0V0ZM6.08 4.16-.64 .32 6.08-3.52H6.4V-3.2L.16 .48V0L6.4 3.68V4L6.08 4.16ZM43.04-3.52 49.6 .32 43.04 4.16 42.72 4V3.68L48.96 0V.48L42.72-3.2V-3.52H43.04Z" transform="matrix(.75,0,0,.75,408.84,78.12)"/>
<path d="M0 0H250.08V.48H0V0ZM6.08 4.16-.64 .32 6.08-3.52H6.4V-3.2L.16 .48V0L6.4 3.68V4L6.08 4.16ZM244-3.52 250.56 .32 244 4.16 243.68 4V3.68L249.92 0V.48L243.68-3.2V-3.52H244Z" transform="matrix(.75,0,0,.75,220.44,78.12)"/>
<path d="M109.92 454.72H130.08V446.72H150.08" stroke="#000000" fill="none" stroke-linejoin="miter" stroke-miterlimit="8" stroke-linecap="butt" stroke-width=".48" transform="matrix(.75,0,0,.75,0,0)"/>
<path d="M109.92 598.4H130.08V590.4H150.08" stroke="#000000" fill="none" stroke-linejoin="miter" stroke-miterlimit="8" stroke-linecap="butt" stroke-width=".48" transform="matrix(.75,0,0,.75,0,0)"/>
<path d="M109.92 707.04H130.08V699.2H150.08" stroke="#000000" fill="none" stroke-linejoin="miter" stroke-miterlimit="8" stroke-linecap="butt" stroke-width=".48" transform="matrix(.75,0,0,.75,0,0)"/>
<path d="M0 0V52H-.48V0H0ZM-4.16 6.08-.32-.64 3.68 6.08 3.52 6.4H3.2L-.48 .16H0L-3.68 6.4H-4L-4.16 6.08ZM3.68 45.92-.32 52.48-4.16 45.92-4 45.44-3.68 45.6 0 51.84H-.48L3.2 45.6 3.52 45.44 3.68 45.92Z" transform="matrix(.75,0,0,.75,512.76,452.76)"/>
<path d="M0 0V378.56H-.48V0H0ZM-4.16 6.08-.32-.64 3.68 6.08 3.52 6.4H3.2L-.48 .16H0L-3.68 6.4H-4L-4.16 6.08ZM3.68 372.48-.32 379.04-4.16 372.48-4 372.16H-3.68L0 378.4H-.48L3.2 372.16H3.52L3.68 372.48Z" transform="matrix(.75,0,0,.75,512.76,100.200008)"/>
<path d="M0 0V89.28H-.48V0H0ZM-4.16 6.08-.32-.64 3.52 6.08V6.4H3.2L-.48 .16H0L-3.68 6.4H-4L-4.16 6.08ZM3.52 83.2-.32 89.76-4.16 83.2-4 82.88H-3.68L0 89.12H-.48L3.2 82.88H3.52V83.2Z" transform="matrix(.75,0,0,.75,512.27999,384.96003)"/>
<path d="M0 0V52H-.64V0H0ZM-4.16 6.08-.32-.48 3.52 6.08V6.4H3.04L-.48 .16H-.16L-3.68 6.4H-4.16V6.08ZM3.52 45.92-.32 52.48-4.16 45.92V45.6H-3.68L-.16 51.84H-.48L3.04 45.6H3.52V45.92Z" transform="matrix(.75,0,0,.75,512.88,494.52)"/>
<g clip-path="url(#clip_1)">
<path d="M356.8 298.24 361.12 311.68 359.2 313.12 347.68 305.12 349.28 304 356.96 309.28 359.2 311.04 358.24 308.32 355.2 299.52ZM363.52 298.88 361.12 300.64 360.32 299.52 364.16 296.64 369.44 303.52 371.84 301.76 372.64 302.88 366.24 307.84 365.28 306.72 368 304.64ZM360.64 293.92C360.8 293.76 360.96 293.6 361.12 293.6 361.28 293.6 361.44 293.6 361.6 293.6 361.76 293.6 362.08 293.6 362.24 293.76 362.4 293.92 362.4 293.92 362.56 294.08 362.72 294.24 362.72 294.4 362.88 294.56 362.88 294.88 362.88 295.04 362.88 295.2 362.88 295.36 362.72 295.52 362.72 295.68 362.56 295.84 362.4 296 362.24 296.16 362.08 296.16 361.92 296.32 361.76 296.32 361.6 296.32 361.44 296.32 361.28 296.32 361.12 296.32 360.96 296.32 360.8 296.16 360.64 296.16 360.48 296 360.32 295.84 360.16 295.68 360.16 295.52 360.16 295.36 360 295.2 360 295.04 360 294.72 360.16 294.56 360.16 294.4 360.32 294.24 360.32 294.08 360.48 293.92 360.64 293.92ZM380 293.92C380.32 294.24 380.32 294.56 380.48 294.72 380.48 295.04 380.48 295.36 380.48 295.68 380.48 296 380.48 296.32 380.32 296.64 380.16 296.8 380 297.12 379.84 297.44 379.68 297.76 379.36 297.92 379.2 298.24 378.88 298.4 378.72 298.72 378.4 298.88 377.92 299.2 377.28 299.68 376.8 299.84 376.32 300.16 375.84 300.48 375.36 300.64L374.4 299.36C374.88 299.2 375.52 298.88 376 298.72 376.48 298.4 376.96 298.08 377.44 297.76 378.08 297.12 378.56 296.64 378.72 296.32 378.88 295.84 378.88 295.52 378.72 295.2 378.56 295.04 378.4 294.88 378.24 294.72 378.08 294.72 377.92 294.72 377.76 294.72 377.6 294.72 377.28 294.72 376.8 294.88 376.48 294.88 376 295.04 375.36 295.36 374.88 295.52 374.56 295.68 374.08 295.68 373.76 295.84 373.28 295.84 372.96 295.84 372.48 295.84 372.16 295.68 371.84 295.52 371.52 295.36 371.2 295.2 371.04 294.72 370.88 294.56 370.72 294.24 370.56 293.92 370.56 293.6 370.56 293.12 370.56 292.8 370.72 292.32 370.88 291.84 371.2 291.36 371.52 290.88 372 290.4 372.64 289.92 372.96 289.76 373.28 289.44 373.76 289.28 374.08 288.96 374.56 288.64 375.04 288.48L376 289.76C375.52 289.92 375.04 290.24 374.56 290.4 374.08 290.72 373.76 290.88 373.44 291.2 373.12 291.36 372.8 291.68 372.64 291.84 372.48 292.16 372.32 292.32 372.32 292.48 372.16 292.8 372.16 292.96 372.16 293.12 372.16 293.28 372.32 293.44 372.32 293.6 372.48 293.76 372.64 293.92 372.8 293.92 372.96 294.08 373.12 294.08 373.28 294.08 373.6 294.08 373.92 294.08 374.24 293.92 374.56 293.76 375.04 293.6 375.68 293.44 376.16 293.28 376.64 293.12 377.12 292.96 377.6 292.96 378.08 292.8 378.4 292.96 378.72 292.96 379.04 292.96 379.36 293.12 379.52 293.44 379.84 293.6 380 293.92ZM381.76 285.12 379.36 286.88 378.56 285.76 382.4 282.88 387.68 289.76 390.08 288 390.88 289.12 384.48 294.08 383.52 292.96 386.24 290.88ZM378.88 280.16C379.04 280 379.2 279.84 379.36 279.84 379.52 279.84 379.68 279.84 379.84 279.84 380 279.84 380.32 280 380.48 280 380.64 280.16 380.64 280.16 380.8 280.32 380.96 280.48 380.96 280.64 381.12 280.96 381.12 281.12 381.12 281.28 381.12 281.44 381.12 281.6 380.96 281.76 380.96 281.92 380.8 282.08 380.64 282.24 380.48 282.4 380.32 282.4 380.16 282.56 380 282.56 379.84 282.56 379.68 282.72 379.52 282.56 379.36 282.56 379.2 282.56 379.04 282.4 378.88 282.4 378.72 282.24 378.56 282.08 378.4 281.92 378.4 281.76 378.4 281.6 378.24 281.44 378.24 281.28 378.24 281.12 378.4 280.8 378.4 280.64 378.56 280.48 378.56 280.32 378.72 280.16 378.88 280.16ZM397.28 277.76C397.76 278.4 398.08 279.2 398.4 279.84 398.56 280.48 398.72 281.12 398.56 281.76 398.56 282.4 398.4 283.04 397.92 283.52 397.6 284.16 397.12 284.64 396.48 285.12 396 285.44 395.52 285.76 394.88 286.08 394.4 286.4 393.76 286.56 393.12 286.72L384.8 275.84 386.24 274.72 388.64 277.92 389.76 279.36C389.76 278.56 389.92 277.92 390.08 277.28 390.4 276.64 390.88 276.16 391.36 275.84 391.84 275.52 392.32 275.2 392.8 275.2 393.28 275.2 393.76 275.2 394.4 275.36 394.88 275.52 395.36 275.84 395.84 276.16 396.32 276.64 396.8 277.12 397.28 277.76ZM395.84 278.88C395.52 278.56 395.2 278.08 394.88 277.76 394.56 277.44 394.24 277.28 393.92 277.12 393.6 276.96 393.28 276.96 392.96 276.96 392.64 276.96 392.32 277.12 392 277.28 391.84 277.44 391.68 277.6 391.52 277.76 391.36 277.92 391.2 278.24 391.2 278.56 391.04 278.72 391.04 279.04 390.88 279.52 390.88 279.84 390.88 280.32 390.88 280.8L393.92 284.8C394.24 284.64 394.56 284.64 394.88 284.48 395.2 284.32 395.52 284.16 395.84 283.84 396.16 283.68 396.32 283.36 396.64 283.04 396.8 282.72 396.96 282.4 396.96 281.92 396.96 281.44 396.96 281.12 396.8 280.64 396.64 280 396.32 279.52 395.84 278.88ZM397.6 268 395.2 269.76 394.4 268.64 398.24 265.76 405.92 276 408.48 274.24 409.28 275.36 402.72 280.32 401.92 279.04 404.48 277.12ZM415.2 263.84C415.36 264 415.52 264.16 415.52 264.32 415.68 264.48 415.84 264.64 415.84 264.8L410.08 268.96C410.72 269.92 411.52 270.4 412.32 270.4 413.12 270.56 413.92 270.24 414.72 269.6 415.04 269.44 415.2 269.28 415.52 268.96 415.68 268.8 416 268.64 416.16 268.48 416.32 268.16 416.48 268 416.64 267.84 416.8 267.68 416.96 267.52 417.12 267.2L418.08 268.48C417.76 268.8 417.28 269.28 416.96 269.6 416.48 270.08 416 270.56 415.52 270.88 414.72 271.52 414.08 271.84 413.44 272 412.8 272.16 412.16 272.16 411.52 272.16 411.04 272 410.4 271.68 409.92 271.36 409.28 270.88 408.8 270.4 408.32 269.76 407.84 269.12 407.52 268.48 407.36 267.84 407.04 267.2 407.04 266.56 407.04 266.08 407.04 265.44 407.2 264.8 407.52 264.16 407.84 263.68 408.16 263.2 408.8 262.72 409.44 262.24 409.92 261.92 410.56 261.76 411.04 261.6 411.68 261.6 412.16 261.76 412.8 261.76 413.28 262.08 413.76 262.4 414.24 262.72 414.72 263.2 415.2 263.84ZM413.6 264.64C413.28 264.32 413.12 264 412.8 263.84 412.48 263.52 412.16 263.36 411.68 263.36 411.36 263.2 411.04 263.2 410.72 263.36 410.4 263.36 409.92 263.52 409.6 263.84 409.28 264.16 409.12 264.32 408.96 264.64 408.8 264.96 408.64 265.28 408.64 265.6 408.64 266.08 408.64 266.4 408.8 266.72 408.8 267.2 409.12 267.52 409.28 268ZM437.76 253.92 436.32 255.04 433.76 253.28 429.28 256.64 430.4 259.52 428.8 260.64 424.32 247.36 426.4 245.76ZM432.32 252.32 426.24 248 428.8 255.04ZM433.28 244.48 434.56 243.52 435.84 244.96C435.84 244 436 243.2 436.32 242.56 436.48 242.08 436.96 241.44 437.44 241.12 438.24 240.48 439.04 240.32 440 240.48 440.8 240.8 441.6 241.44 442.4 242.56L440.96 243.52C440.48 242.88 440 242.4 439.52 242.24 439.04 242.08 438.56 242.24 438.08 242.56 437.92 242.72 437.76 242.88 437.6 243.04 437.44 243.2 437.28 243.52 437.28 243.84 437.12 244.16 437.12 244.48 437.12 244.96 436.96 245.28 436.96 245.76 436.96 246.24L440.96 251.52 439.52 252.64ZM451.84 236.32C452 236.48 452 236.64 452.16 236.8 452.32 236.96 452.32 236.96 452.48 237.12L446.72 241.44C447.36 242.24 448 242.72 448.8 242.88 449.6 243.04 450.56 242.72 451.36 242.08 451.68 241.92 451.84 241.6 452 241.44 452.32 241.28 452.48 241.12 452.64 240.8 452.96 240.64 453.12 240.48 453.28 240.32 453.44 240 453.6 239.84 453.76 239.68L454.56 240.8C454.24 241.28 453.92 241.76 453.44 242.08 453.12 242.56 452.64 243.04 452 243.36 451.36 243.84 450.72 244.16 450.08 244.48 449.44 244.64 448.8 244.64 448.16 244.48 447.52 244.48 447.04 244.16 446.4 243.68 445.92 243.36 445.44 242.88 444.96 242.08 444.48 241.6 444.16 240.96 443.84 240.32 443.68 239.68 443.52 239.04 443.68 238.4 443.68 237.76 443.84 237.28 444.16 236.64 444.32 236 444.8 235.52 445.44 235.04 445.92 234.72 446.56 234.4 447.04 234.24 447.68 234.08 448.32 234.08 448.8 234.24 449.28 234.24 449.92 234.56 450.4 234.88 450.88 235.2 451.36 235.68 451.84 236.32ZM450.24 237.12C449.92 236.8 449.6 236.48 449.28 236.16 448.96 236 448.64 235.84 448.32 235.84 448 235.68 447.68 235.68 447.2 235.84 446.88 235.84 446.56 236 446.24 236.32 445.92 236.48 445.6 236.8 445.44 237.12 445.28 237.44 445.28 237.76 445.28 238.08 445.12 238.4 445.28 238.88 445.28 239.2 445.44 239.68 445.6 240 445.92 240.32ZM462.56 235.2 461.76 234.08C461.6 234.88 461.44 235.52 461.12 236 460.8 236.64 460.48 237.12 459.84 237.44 459.36 237.76 459.04 238.08 458.56 238.24 458.08 238.24 457.76 238.4 457.44 238.24 456.96 238.24 456.64 238.08 456.32 237.92 456 237.76 455.84 237.44 455.52 237.12 454.88 236.32 454.72 235.36 455.04 234.56 455.2 233.6 456 232.64 457.12 231.84L458.88 230.56 458.24 229.76C457.92 229.28 457.44 228.96 456.96 228.96 456.48 228.96 455.84 229.12 455.2 229.6 454.72 229.92 454.4 230.4 453.92 230.72 453.6 231.2 453.28 231.68 452.96 232.32L452 231.04C452.16 230.72 452.32 230.56 452.48 230.4 452.64 230.08 452.8 229.92 452.96 229.6 453.28 229.44 453.44 229.12 453.6 228.96 453.92 228.8 454.24 228.48 454.4 228.32 454.88 228 455.36 227.68 455.84 227.52 456.32 227.2 456.8 227.2 457.28 227.2 457.76 227.2 458.08 227.36 458.56 227.52 458.88 227.84 459.36 228.16 459.68 228.64L463.84 234.24ZM459.68 231.52 457.92 232.96C457.44 233.12 457.28 233.44 456.96 233.76 456.8 233.92 456.64 234.24 456.64 234.56 456.64 234.72 456.64 235.04 456.64 235.2 456.64 235.52 456.8 235.68 456.96 236 457.12 236.16 457.28 236.16 457.44 236.32 457.6 236.48 457.76 236.48 457.92 236.48 458.08 236.48 458.24 236.48 458.56 236.48 458.72 236.48 459.04 236.32 459.2 236.16 459.52 235.84 459.84 235.52 460.16 234.88 460.48 234.4 460.64 233.76 460.8 232.96Z" transform="matrix(.75,0,0,.75,0,0)"/>
</g>
</svg>