<svg viewBox="53.2010913220339 88.647111242412 361.56440677966106 197.00929638000002" version="1.1" xmlns:xlink="http://www.w3.org/1999/xlink" xmlns="http://www.w3.org/2000/svg" style="max-height: 500px" width="361.56440677966106" height="197.00929638000002">
<path fill="#3a3838" d="M155.04 163.68H194.24V182.24H155.04Z" transform="matrix(.75,0,0,.75,0,0)"/>
<path fill="#3a3838" d="M135.52 182.08H213.76V200.64H135.52Z" transform="matrix(.75,0,0,.75,0,0)"/>
<path fill-rule="evenodd" fill="#3a3838" d="M116 200.48H155.2V219.04H116ZM194.08 200.48H233.28V219.04H194.08Z" transform="matrix(.75,0,0,.75,0,0)"/>
<path fill-rule="evenodd" fill="#3a3838" d="M116 218.88H135.68V274.24H116ZM213.6 218.88H233.28V274.24H213.6Z" transform="matrix(.75,0,0,.75,0,0)"/>
<path fill="#3a3838" d="M116 274.08H233.28V292.64H116Z" transform="matrix(.75,0,0,.75,0,0)"/>
<path fill-rule="evenodd" fill="#3a3838" d="M116 292.48H135.68V347.84H116ZM213.6 292.48H233.28V347.84H213.6Z" transform="matrix(.75,0,0,.75,0,0)"/>
<text font-family="F1" font-size="13.9205" transform="matrix(.75 0 0 .75 0 0)" xml:space="preserve"><tspan x="103.36 122.84871 142.33742 161.96533 181.45404 200.94275 220.43146 240.05937 321.91194 341.4006 361.0285 380.51719 400.00587 419.49455 438.98323 458.6111 512.6226 519.93637 526.23727 530.9001" y="140.8">1234567812345678byte</tspan></text>
<text font-family="F1" font-size="13.9205" transform="matrix(.75 0 0 .75 0 0)" xml:space="preserve"><tspan x="79.2 300.53596 321.9735 341.4622 360.95088 380.43955 400.06745 419.55613 439.0448 458.53349 512.6842 519.6445 525.76956 532.7298" y="159.2">11000000000x00</tspan></text>
<text font-family="F1" font-size="13.9205" transform="matrix(.75 0 0 .75 0 0)" xml:space="preserve"><tspan x="79.2 300.53596 321.9735 341.4622 360.95088 380.43955 400.06745 419.55613 439.0448 458.53349 512.6842 519.6445 525.76956 532.7298" y="177.6">22000110000x18</tspan></text>
<text font-family="F1" font-size="13.9205" transform="matrix(.75 0 0 .75 0 0)" xml:space="preserve"><tspan x="79.2 300.53596 321.9735 341.4622 360.95088 380.43955 400.06745 419.55613 439.0448 458.53349 512.6842 519.6445 525.76956 532.7298" y="196">33001111000x3C</tspan></text>
<text font-family="F1" font-size="13.9205" transform="matrix(.75 0 0 .75 0 0)" xml:space="preserve"><tspan x="79.2 300.53596 321.9735 341.4622 360.95088 380.43955 400.06745 419.55613 439.0448 458.53349 512.6842 519.6445 525.76956 532.7298" y="214.4">44011001100x66</tspan></text>
<text font-family="F1" font-size="13.9205" transform="matrix(.75 0 0 .75 0 0)" xml:space="preserve"><tspan x="79.2 300.53596 321.9735 341.4622 360.95088 380.43955 400.06745 419.55613 439.0448 458.53349 512.6842 519.6445 525.76956 532.7298" y="232.8">55010000100x42</tspan></text>
<text font-family="F1" font-size="13.9205" transform="matrix(.75 0 0 .75 0 0)" xml:space="preserve"><tspan x="79.2 300.53596 321.9735 341.4622 360.95088 380.43955 400.06745 419.55613 439.0448 458.53349 512.6842 519.6445 525.76956 532.7298" y="251.2">66010000100x42</tspan></text>
<text font-family="F1" font-size="13.9205" transform="matrix(.75 0 0 .75 0 0)" xml:space="preserve"><tspan x="79.2 300.53596 321.9735 341.4622 360.95088 380.43955 400.06745 419.55613 439.0448 458.53349 512.6842 519.6445 525.76956 532.7298" y="269.6">77010000100x42</tspan></text>
<text font-family="F1" font-size="13.9205" transform="matrix(.75 0 0 .75 0 0)" xml:space="preserve"><tspan x="79.2 300.53596 321.9735 341.4622 360.95088 380.43955 400.06745 419.55613 439.0448 458.53349 512.6842 519.6445 525.76956 532.7298" y="288">88011111100x7E</tspan></text>
<text font-family="F1" font-size="13.9205" transform="matrix(.75 0 0 .75 0 0)" xml:space="preserve"><tspan x="79.2 300.53596 321.9735 341.4622 360.95088 380.43955 400.06745 419.55613 439.0448 458.53349 512.6842 519.6445 525.76956 532.7298" y="306.4">99010000100x42</tspan></text>
<text font-family="F1" font-size="13.9205" transform="matrix(.75 0 0 .75 0 0)" xml:space="preserve"><tspan x="75.68 82.735408 296.97193 303.93217 321.8896 341.37828 361.00617 380.49485 399.98353 419.4722 439.1001 458.58879 512.6003 519.6557 525.78079 532.741" y="324.8">1010010000100x42</tspan></text>
<text font-family="F1" font-size="13.9205" transform="matrix(.75 0 0 .75 0 0)" xml:space="preserve"><tspan x="75.68 82.735408 296.97193 303.93217 321.8896 341.37828 361.00617 380.49485 399.98353 419.4722 439.1001 458.58879 512.6003 519.6557 525.78079 532.741" y="343.2">1111010000100x42</tspan></text>
<text font-family="F1" font-size="13.9205" transform="matrix(.75 0 0 .75 0 0)" xml:space="preserve"><tspan x="75.68 82.735408 296.97193 303.93217 321.8896 341.37828 361.00617 380.49485 399.98353 419.4722 439.1001 458.58879 512.6003 519.6557 525.78079 532.741" y="361.6">1212000000000x00</tspan></text>
<path fill-rule="evenodd" d="M97.12 144.64H253.28V145.92H97.12ZM97.12 163.04H253.28V164.32H97.12ZM97.12 181.44H253.28V182.72H97.12ZM97.12 199.84H253.28V201.12H97.12ZM97.12 218.24H253.28V219.52H97.12ZM97.12 236.64H253.28V237.92H97.12ZM97.12 255.04H253.28V256.32H97.12ZM97.12 273.44H253.28V274.72H97.12ZM97.12 291.84H253.28V293.12H97.12ZM97.12 310.24H253.28V311.52H97.12ZM97.12 328.64H253.28V329.92H97.12ZM97.12 347.04H253.28V348.32H97.12ZM97.12 365.44H253.28V366.72H97.12Z" transform="matrix(.75,0,0,.75,0,0)"/>
<path fill-rule="evenodd" d="M95.84 144.64H97.12V366.72H95.84ZM115.36 145.92H116.64V366.72H115.36ZM134.88 145.92H136.16V366.72H134.88ZM154.4 145.92H155.68V366.72H154.4ZM173.92 145.92H175.2V366.72H173.92ZM193.44 145.92H194.72V366.72H193.44ZM212.96 145.92H214.24V366.72H212.96ZM232.48 145.92H233.76V366.72H232.48ZM252 145.92H253.28V366.72H252ZM314.4 144.64H315.68V366.72H314.4ZM333.92 145.92H335.2V366.72H333.92ZM353.44 145.92H354.72V366.72H353.44ZM372.96 145.92H374.24V366.72H372.96ZM392.48 145.92H393.76V366.72H392.48ZM412 145.92H413.28V366.72H412ZM431.52 145.92H432.8V366.72H431.52ZM451.04 145.92H452.32V366.72H451.04ZM470.56 145.92H471.84V366.72H470.56Z" transform="matrix(.75,0,0,.75,0,0)"/>
<path fill-rule="evenodd" d="M315.68 144.64H471.84V145.92H315.68ZM315.68 163.04H471.84V164.32H315.68ZM315.68 181.44H471.84V182.72H315.68ZM315.68 199.84H471.84V201.12H315.68ZM315.68 218.24H471.84V219.52H315.68ZM315.68 236.64H471.84V237.92H315.68ZM315.68 255.04H471.84V256.32H315.68ZM315.68 273.44H471.84V274.72H315.68ZM315.68 291.84H471.84V293.12H315.68ZM315.68 310.24H471.84V311.52H315.68ZM315.68 328.64H471.84V329.92H315.68ZM315.68 347.04H471.84V348.32H315.68ZM315.68 365.44H471.84V366.72H315.68Z" transform="matrix(.75,0,0,.75,0,0)"/>
</svg>