<svg viewBox="41.4818639661017 44.902459861337995 506.19016949152547 129.65569078" version="1.1" xmlns:xlink="http://www.w3.org/1999/xlink" xmlns="http://www.w3.org/2000/svg" style="max-height: 500px" width="506.19016949152547" height="129.65569078">
<defs>
<clipPath id="clip_0">
<path clip-rule="evenodd" d="M67.2 72V209.92H719.68V72Z" transform="matrix(.75,0,0,.75,0,0)"/>
</clipPath>
<clipPath id="clip_1">
<path clip-rule="evenodd" d="M-593.12-38.88V99.04H59.36V-38.88Z" transform="matrix(.75,0,0,.75,495.24,83.159999)"/>
</clipPath>
<clipPath id="clip_2">
<path clip-rule="evenodd" d="M-474.24-125.44V12.48H178.24V-125.44Z" transform="matrix(.75,0,0,.75,406.08003,148.08)"/>
</clipPath>
</defs>
<rect x="0" y="0" width="120%" height="125%" fill="#ffffff"/>
<text font-family="F1" font-size="9.76038" transform="matrix(.75 0 0 .75 0 0)" xml:space="preserve"><tspan x="84 89.46581 94.832118 100.29793 105.76374" y="85.76">Front</tspan></text>
<text font-family="F1" font-size="9.76038" transform="matrix(.75 0 0 .75 0 0)" xml:space="preserve"><tspan x="84 89.46581 94.832118 100.29793 105.76374" y="98.56">Porch</tspan></text>
<text font-family="F1" font-size="9.76038" transform="matrix(.75 0 0 .75 0 0)" xml:space="preserve"><tspan x="205.12 210.5858 215.9521 221.41791" y="85.76">Back</tspan></text>
<text font-family="F1" font-size="9.76038" transform="matrix(.75 0 0 .75 0 0)" xml:space="preserve"><tspan x="202.4 207.8658 213.2321 218.6979 224.16371" y="98.56">Porch</tspan></text>
<text font-family="F1" font-size="9.76038" transform="matrix(.75 0 0 .75 0 0)" xml:space="preserve"><tspan x="266.72 272.18583 277.55213 283.01795 288.48377 293.9496 299.3159 304.7817 310.24754 315.71336 321.07966 326.54548 332.0113 337.4771" y="183.68">Full Scan Line</tspan></text>
<text font-family="F1" font-size="9.76038" transform="matrix(.75 0 0 .75 0 0)" xml:space="preserve"><tspan x="557.6 563.0658 568.4321 573.89797 579.3638" y="85.76">Front</tspan></text>
<text font-family="F1" font-size="9.76038" transform="matrix(.75 0 0 .75 0 0)" xml:space="preserve"><tspan x="557.6 563.0658 568.4321 573.89797 579.3638 619.967 625.4328 630.8986 636.36447" y="98.56">PorchSync</tspan></text>
<text font-family="F1" font-size="9.76038" transform="matrix(.75 0 0 .75 0 0)" xml:space="preserve"><tspan x="678.72 684.1858 689.5521 695.01797" y="85.76">Back</tspan></text>
<text font-family="F1" font-size="9.76038" transform="matrix(.75 0 0 .75 0 0)" xml:space="preserve"><tspan x="676 681.4658 686.83218 692.298 697.7638" y="98.56">Porch</tspan></text>
<text font-family="F1" font-size="9.76038" transform="matrix(.75 0 0 .75 0 0)" xml:space="preserve"><tspan x="592.8 598.2658 603.63217 609.09799 614.5638 620.0296 625.39596 630.86178 636.3276 641.7934 647.1597 652.62557 658.0914 663.5572" y="183.68">Next Scan Line</tspan></text>
<text font-family="F1" font-size="9.76038" transform="matrix(.75 0 0 .75 0 0)" xml:space="preserve"><tspan x="146.4 151.8658 157.2321 162.6979 364.15217 369.61799 375.0838 380.4501 385.91593 391.38175 396.84757 402.21388 407.6797 413.1455 418.5118" y="98.56">SyncActive Area</tspan></text>
<path fill-rule="evenodd" d="M126.56 102.88H127.68V124.32H126.56ZM67.84 144.96H127.68V146.08H67.84ZM185.76 102.88H186.88V124.32H185.76ZM600.16 102.88H601.28V124.32H600.16ZM186.88 144.96H601.28V146.08H186.88ZM659.36 102.88H660.48V124.32H659.36ZM127.68 166.24H186.88V167.36H127.68ZM67.36 102.88H68.48V124.32H67.36ZM540.96 102.88H542.08V124.32H540.96ZM67.36 188H68.48V209.44H67.36Z" transform="matrix(.75,0,0,.75,0,0)"/>
<path fill-rule="evenodd" d="M126.56 146.08H127.68V167.36H126.56ZM185.76 144.96H186.88V167.36H185.76ZM244.96 102.88H246.08V124.32H244.96ZM540.96 188H542.08V209.44H540.96ZM600.16 146.08H601.28V167.36H600.16ZM659.36 144.96H660.48V167.36H659.36Z" transform="matrix(.75,0,0,.75,0,0)"/>
<path fill-rule="evenodd" d="M660.48 144.96H719.2V146.08H660.48ZM601.28 166.24H660.48V167.36H601.28Z" transform="matrix(.75,0,0,.75,0,0)"/>
<path d="M0 0H58.56V.64H0V0ZM7.2 4.96-.64 .32 7.2-4.16H7.52 7.68L7.52-3.68 .16 .64V.16L7.52 4.32 7.68 4.8 7.2 4.96ZM51.36-4.16 59.2 .32 51.36 4.96 50.88 4.8 51.04 4.32 58.4 .16V.64L51.04-3.68 50.88-4.16H51.04 51.36Z" transform="matrix(.75,0,0,.75,94.92,83.159999)"/>
<path d="M0 0H58.08V.64H0V0ZM7.2 4.96-.64 .32 7.2-4.16H7.36 7.52V-3.68L.16 .64V.16L7.52 4.32V4.8L7.2 4.96ZM50.72-4.16 58.56 .32 50.72 4.96 50.4 4.8 50.56 4.32 57.92 .16V.64L50.56-3.68 50.4-4.16H50.56 50.72Z" transform="matrix(.75,0,0,.75,140.04001,83.159999)"/>
<g clip-path="url(#clip_0)">
<path d="M0 0H58.08V.64H0V0ZM7.2 4.96-.64 .32 7.2-4.16H7.52 7.68L7.52-3.68 .16 .64V.16L7.52 4.32 7.68 4.8 7.2 4.96ZM50.88-4.16 58.72 .32 50.88 4.96 50.4 4.8 50.56 4.32 57.92 .16V.64L50.56-3.68 50.4-4.16H50.56 50.88Z" transform="matrix(.75,0,0,.75,50.879999,83.159999)"/>
<path d="M0 0H471.52V.64H0V0ZM7.2 4.96-.64 .32 7.2-4.16H7.52V-3.84-3.68L.16 .64V.16L7.52 4.32V4.64 4.8L7.36 4.96H7.2ZM464.32-4.16 472.16 .32 464.32 4.96H464L463.84 4.8 464 4.32 471.36 .16V.64L464-3.68 463.84-4.16H464.32Z" transform="matrix(.75,0,0,.75,51.239999,148.08)"/>
</g>
<path d="M0 0H58.56V.64H0V0ZM7.2 4.96-.64 .32 7.2-4.16H7.52 7.68L7.52-3.68 .16 .64V.16L7.52 4.32 7.68 4.8 7.2 4.96ZM51.36-4.16 59.2 .32 51.36 4.96 50.88 4.8 51.04 4.32 58.4 .16V.64L51.04-3.68 50.88-4.16H51.04 51.36Z" transform="matrix(.75,0,0,.75,450.12,83.159999)"/>
<g clip-path="url(#clip_1)">
<path d="M0 0H58.08V.64H0V0ZM7.2 4.96-.64 .32 7.2-4.16H7.36 7.52V-3.68L.16 .64V.16L7.52 4.32V4.8L7.2 4.96ZM50.72-4.16 58.56 .32 50.72 4.96 50.4 4.8 50.56 4.32 57.92 .16V.64L50.56-3.68 50.4-4.16H50.56 50.72Z" transform="matrix(.75,0,0,.75,495.24,83.159999)"/>
</g>
<path d="M0 0H58.08V.64H0V0ZM7.2 4.96-.64 .32 7.2-4.16H7.52 7.68L7.52-3.68 .16 .64V.16L7.52 4.32 7.68 4.8 7.2 4.96ZM50.88-4.16 58.72 .32 50.88 4.96 50.4 4.8 50.56 4.32 57.92 .16V.64L50.56-3.68 50.4-4.16H50.56 50.88Z" transform="matrix(.75,0,0,.75,406.08003,83.159999)"/>
<g clip-path="url(#clip_2)">
<path d="M0 0H176.96V.64H0V0ZM7.2 4.96-.64 .32 7.2-4.16H7.68L7.52-3.68 .16 .64V.16L7.52 4.32 7.68 4.8 7.52 4.96H7.2Z" transform="matrix(.75,0,0,.75,406.08003,148.08)"/>
</g>
<path d="M0 0H294.56V.64H0V0ZM7.2 4.96-.64 .32 7.2-4.16H7.36 7.52V-3.68L.16 .64V.16L7.52 4.32V4.8L7.2 4.96ZM287.36-4.16 295.2 .32 287.36 4.96 286.88 4.8 287.04 4.32 294.4 .16V.64L287.04-3.68 286.88-4.16H287.04 287.36Z" transform="matrix(.75,0,0,.75,184.31999,83.159999)"/>
</svg>