<svg viewBox="41.4818639661017 44.902459861337995 506.19016949152547 129.65569078" version="1.1" xmlns:xlink="http://www.w3.org/1999/xlink" xmlns="http://www.w3.org/2000/svg" style="max-height: 500px" width="506.19016949152547" height="129.65569078">
<defs>
<clipPath id="clip_0">
<path clip-rule="evenodd" d="M67.2 72V213.6H719.68V72Z" transform="matrix(.75,0,0,.75,0,0)"/>
</clipPath>
<clipPath id="clip_1">
<path clip-rule="evenodd" d="M-593.12-42.56V99.04H59.36V-42.56Z" transform="matrix(.75,0,0,.75,495.24,85.92)"/>
</clipPath>
<clipPath id="clip_2">
<path clip-rule="evenodd" d="M-474.24-129.12V12.48H178.24V-129.12Z" transform="matrix(.75,0,0,.75,406.08003,150.84)"/>
</clipPath>
</defs>
<rect x="0" y="0" width="120%" height="125%" fill="#ffffff"/>
<text font-family="F1" font-size="9.76038" transform="matrix(.75 0 0 .75 0 0)" xml:space="preserve"><tspan x="84 89.46581 94.832118 100.29793 105.76374" y="89.44">Front</tspan></text>
<text font-family="F1" font-size="9.76038" transform="matrix(.75 0 0 .75 0 0)" xml:space="preserve"><tspan x="84 89.46581 94.832118 100.29793 105.76374 146.36693 151.83274 157.29854 162.76435" y="102.24">PorchSync</tspan></text>
<text font-family="F1" font-size="9.76038" transform="matrix(.75 0 0 .75 0 0)" xml:space="preserve"><tspan x="205.12 210.5858 215.9521 221.41791" y="89.44">Back</tspan></text>
<text font-family="F1" font-size="9.76038" transform="matrix(.75 0 0 .75 0 0)" xml:space="preserve"><tspan x="202.4 207.8658 213.2321 218.6979 224.16371" y="102.24">Porch</tspan></text>
<text font-family="F1" font-size="9.76038" transform="matrix(.75 0 0 .75 0 0)" xml:space="preserve"><tspan x="557.6 563.0658 568.4321 573.89797 579.3638" y="89.44">Front</tspan></text>
<text font-family="F1" font-size="9.76038" transform="matrix(.75 0 0 .75 0 0)" xml:space="preserve"><tspan x="557.6 563.0658 568.4321 573.89797 579.3638 619.967 625.4328 630.8986 636.36447" y="102.24">PorchSync</tspan></text>
<text font-family="F1" font-size="9.76038" transform="matrix(.75 0 0 .75 0 0)" xml:space="preserve"><tspan x="231.36 236.8258 242.19211 247.65792 253.12372 258.58955 263.95585 269.42167 274.88749 280.3533 285.7196 291.18544 296.65126 302.11708 307.48338 312.9492 318.415 323.88084 329.24714 334.71296 340.17878 345.6446 351.0109 356.4767 361.94255 367.40837 372.77467 590.0408 595.5066 600.9724 606.43826 611.80459 617.2704 622.7362 628.202 633.56838 639.0342 644.5 649.9658 655.33218 660.798 666.2638" y="187.36">Full Frame (525 scan lines)Next Full Frame</tspan></text>
<text font-family="F1" font-size="9.76038" transform="matrix(.75 0 0 .75 0 0)" xml:space="preserve"><tspan x="364.16 369.62583 374.99214 380.45796 385.92378 391.3896 396.7559 402.2217 407.68754 413.15336 418.51966" y="102.24">Active Area</tspan></text>
<text font-family="F1" font-size="9.76038" transform="matrix(.75 0 0 .75 0 0)" xml:space="preserve"><tspan x="678.72 684.1858 689.5521 695.01797" y="89.44">Back</tspan></text>
<text font-family="F1" font-size="9.76038" transform="matrix(.75 0 0 .75 0 0)" xml:space="preserve"><tspan x="676 681.4658 686.83218 692.298 697.7638" y="102.24">Porch</tspan></text>
<path fill-rule="evenodd" d="M126.56 106.56H127.68V128H126.56ZM67.84 148.64H127.68V149.76H67.84ZM185.76 106.56H186.88V128H185.76ZM600.16 106.56H601.28V128H600.16ZM186.88 148.64H601.28V149.76H186.88ZM659.36 106.56H660.48V128H659.36ZM127.68 169.92H186.88V171.04H127.68ZM67.36 106.56H68.48V128H67.36ZM540.96 106.56H542.08V128H540.96ZM67.36 191.68H68.48V213.12H67.36Z" transform="matrix(.75,0,0,.75,0,0)"/>
<path fill-rule="evenodd" d="M126.56 149.76H127.68V171.04H126.56ZM185.76 148.64H186.88V171.04H185.76ZM244.96 106.56H246.08V128H244.96ZM540.96 191.68H542.08V213.12H540.96ZM600.16 149.76H601.28V171.04H600.16ZM659.36 148.64H660.48V171.04H659.36Z" transform="matrix(.75,0,0,.75,0,0)"/>
<path fill-rule="evenodd" d="M660.48 148.64H719.2V149.76H660.48ZM601.28 169.92H660.48V171.04H601.28Z" transform="matrix(.75,0,0,.75,0,0)"/>
<path d="M0 0H58.56V.64H0V0ZM7.2 4.96-.64 .32 7.2-4.16H7.52 7.68L7.52-3.68 .16 .64V.16L7.52 4.32 7.68 4.8 7.2 4.96ZM51.36-4.16 59.2 .32 51.36 4.96 50.88 4.8 51.04 4.32 58.4 .16V.64L51.04-3.68 50.88-4.16H51.04 51.36Z" transform="matrix(.75,0,0,.75,94.92,85.92)"/>
<path d="M0 0H58.08V.64H0V0ZM7.2 4.96-.64 .32 7.2-4.16H7.36 7.52V-3.68L.16 .64V.16L7.52 4.32V4.8L7.2 4.96ZM50.72-4.16 58.56 .32 50.72 4.96 50.4 4.8 50.56 4.32 57.92 .16V.64L50.56-3.68 50.4-4.16H50.56 50.72Z" transform="matrix(.75,0,0,.75,140.04001,85.92)"/>
<g clip-path="url(#clip_0)">
<path d="M0 0H58.08V.64H0V0ZM7.2 4.96-.64 .32 7.2-4.16H7.52 7.68L7.52-3.68 .16 .64V.16L7.52 4.32 7.68 4.8 7.2 4.96ZM50.88-4.16 58.72 .32 50.88 4.96 50.4 4.8 50.56 4.32 57.92 .16V.64L50.56-3.68 50.4-4.16H50.56 50.88Z" transform="matrix(.75,0,0,.75,50.879999,85.92)"/>
<path d="M0 0H471.52V.64H0V0ZM7.2 4.96-.64 .32 7.2-4.16H7.52V-3.84-3.68L.16 .64V.16L7.52 4.32V4.64 4.8L7.36 4.96H7.2ZM464.32-4.16 472.16 .32 464.32 4.96H464L463.84 4.8 464 4.32 471.36 .16V.64L464-3.68 463.84-4.16H464.32Z" transform="matrix(.75,0,0,.75,51.239999,150.84)"/>
</g>
<path d="M0 0H58.56V.64H0V0ZM7.2 4.96-.64 .32 7.2-4.16H7.52 7.68L7.52-3.68 .16 .64V.16L7.52 4.32 7.68 4.8 7.2 4.96ZM51.36-4.16 59.2 .32 51.36 4.96 50.88 4.8 51.04 4.32 58.4 .16V.64L51.04-3.68 50.88-4.16H51.04 51.36Z" transform="matrix(.75,0,0,.75,450.12,85.92)"/>
<g clip-path="url(#clip_1)">
<path d="M0 0H58.08V.64H0V0ZM7.2 4.96-.64 .32 7.2-4.16H7.36 7.52V-3.68L.16 .64V.16L7.52 4.32V4.8L7.2 4.96ZM50.72-4.16 58.56 .32 50.72 4.96 50.4 4.8 50.56 4.32 57.92 .16V.64L50.56-3.68 50.4-4.16H50.56 50.72Z" transform="matrix(.75,0,0,.75,495.24,85.92)"/>
</g>
<path d="M0 0H58.08V.64H0V0ZM7.2 4.96-.64 .32 7.2-4.16H7.52 7.68L7.52-3.68 .16 .64V.16L7.52 4.32 7.68 4.8 7.2 4.96ZM50.88-4.16 58.72 .32 50.88 4.96 50.4 4.8 50.56 4.32 57.92 .16V.64L50.56-3.68 50.4-4.16H50.56 50.88Z" transform="matrix(.75,0,0,.75,406.08003,85.92)"/>
<g clip-path="url(#clip_2)">
<path d="M0 0H176.96V.64H0V0ZM7.2 4.96-.64 .32 7.2-4.16H7.68L7.52-3.68 .16 .64V.16L7.52 4.32 7.68 4.8 7.52 4.96H7.2Z" transform="matrix(.75,0,0,.75,406.08003,150.84)"/>
</g>
<path d="M0 0H294.56V.64H0V0ZM7.2 4.96-.64 .32 7.2-4.16H7.36 7.68L7.52-3.68 .16 .64V.16L7.52 4.32 7.68 4.8 7.2 4.96ZM287.36-4.16 295.2 .32 287.36 4.96 286.88 4.8 287.04 4.32 294.4 .16V.64L287.04-3.68 286.88-4.16H287.04 287.36Z" transform="matrix(.75,0,0,.75,184.79999,85.92)"/>
</svg>